<?xml version="1.0" encoding="utf-8"?>
<!-- Generator: Adobe Illustrator 27.3.1, SVG Export Plug-In . SVG Version: 6.00 Build 0)  -->
<svg version="1.1" id="Layer_1" xmlns="http://www.w3.org/2000/svg" xmlns:xlink="http://www.w3.org/1999/xlink" x="0px" y="0px"
	 viewBox="0 0 244.6 291" style="enable-background:new 0 0 244.6 291;" xml:space="preserve">
<style type="text/css">
	.st0{fill:#1D2151;}
	.st1{fill:url(#SVGID_1_);}
	.st2{fill:#46C3D3;}
	.st3{fill:url(#SVGID_00000090998040081305734880000016943217462109536437_);}
	.st4{fill:#FFFFFF;}
	.st5{fill:url(#SVGID_00000039136232565869402990000006845703180049589943_);}
	.st6{fill:url(#SVGID_00000029005978357777868680000007545824944042658989_);}
	.st7{fill:url(#SVGID_00000084512509736082713800000016912821116323400602_);}
</style>
<g>
	<g>
		<path class="st0" d="M783.8,129c-2.8,1.2-4.2,4.6-2.9,7.4c1.2,2.9,4.6,4.2,7.4,2.9l22.9-10l-42.7,123.3c-4.2,12.1-12,22-22.1,28
			c-9.8,5.8-20.4,7.2-30.1,3.8c-9.6-3.3-17.2-11-21.3-21.6c-4.2-10.9-4.2-23.6,0-35.7l46.9-135.4l8.9-24.7
			c6.7,4.1,11.9,10.5,15.1,18.7c4.2,10.9,4.2,23.6,0,35.7L719,257.1c-1,2.9,0.5,6.1,3.5,7.2c0.6,0.2,1.2,0.3,1.8,0.3
			c2.3,0,4.5-1.5,5.3-3.8l46.9-135.5c5.1-14.6,5-30-0.2-43.4c-5.3-13.7-15.3-23.8-28.1-28.2c-26.1-9-55.9,8.4-66.5,38.8l-50.5,145.8
			l53.5-15.9l-0.4,1.2c-5.1,14.6-5,30,0.2,43.4c5.3,13.7,15.3,23.8,28.1,28.2c4.7,1.6,9.5,2.4,14.4,2.4c8.5,0,17.1-2.4,25.1-7.2
			c12.3-7.4,21.9-19.4,27-34l51.1-147.6L783.8,129z M649.1,221.3l43.3-125.1c7.9-22.9,28.7-36.8,47.8-33l-9,25l-41.9,121.2
			L649.1,221.3z"/>
		<linearGradient id="SVGID_1_" gradientUnits="userSpaceOnUse" x1="649.1356" y1="141.9065" x2="740.2765" y2="141.9065">
			<stop  offset="0" style="stop-color:#304881"/>
			<stop  offset="0.4732" style="stop-color:#2F4D82"/>
			<stop  offset="1" style="stop-color:#00959D"/>
		</linearGradient>
		<path class="st1" d="M740.3,63.1l-9,25l-41.9,121.2l-40.2,12l43.3-125.1C700.3,73.3,721.1,59.4,740.3,63.1z"/>
	</g>
	<g>
		<g>
			<path class="st0" d="M875.6,199.3v-55.5h7.8l17.8,28.1c4.1,6.5,7.3,12.4,10,18l0.2-0.1c-0.7-7.4-0.8-14.2-0.8-22.8v-23.2h6.8
				v55.5H910l-17.6-28.2c-3.9-6.2-7.6-12.5-10.4-18.5l-0.2,0.1c0.4,7,0.6,13.7,0.6,22.9v23.7H875.6z"/>
			<path class="st0" d="M962.9,188.4c0,4.1,0.1,7.7,0.3,10.9h-6.4l-0.4-6.5h-0.2c-1.9,3.2-6.1,7.4-13.2,7.4
				c-6.3,0-13.8-3.5-13.8-17.5v-23.3h7.2v22.1c0,7.6,2.3,12.7,8.9,12.7c4.9,0,8.2-3.4,9.6-6.6c0.4-1.1,0.7-2.4,0.7-3.7v-24.5h7.2
				V188.4z"/>
			<path class="st0" d="M974.9,170.2c0-4.1-0.1-7.5-0.3-10.8h6.3l0.3,6.4h0.2c2.2-3.8,5.9-7.3,12.5-7.3c5.4,0,9.6,3.3,11.3,8h0.2
				c1.2-2.2,2.8-4,4.4-5.2c2.4-1.8,5-2.8,8.8-2.8c5.3,0,13.1,3.5,13.1,17.3v23.5h-7.1v-22.6c0-7.7-2.8-12.3-8.6-12.3
				c-4.1,0-7.3,3-8.6,6.6c-0.3,1-0.6,2.3-0.6,3.6v24.6h-7.1v-23.9c0-6.3-2.8-11-8.3-11c-4.5,0-7.8,3.6-9,7.2
				c-0.4,1.1-0.6,2.3-0.6,3.5v24h-7.1V170.2z"/>
			<path class="st0" d="M1065.7,199.3l-0.6-5h-0.2c-2.2,3.1-6.5,5.9-12.2,5.9c-8.1,0-12.2-5.7-12.2-11.4c0-9.6,8.6-14.9,24-14.8
				v-0.8c0-3.3-0.9-9.2-9.1-9.2c-3.7,0-7.6,1.2-10.4,3l-1.6-4.8c3.3-2.1,8.1-3.5,13.1-3.5c12.2,0,15.2,8.3,15.2,16.3v14.9
				c0,3.5,0.2,6.8,0.7,9.6H1065.7z M1064.6,178.9c-7.9-0.2-16.9,1.2-16.9,9c0,4.7,3.1,6.9,6.8,6.9c5.2,0,8.5-3.3,9.6-6.7
				c0.2-0.7,0.4-1.6,0.4-2.3V178.9z"/>
			<path class="st2" d="M1082.3,191.8c2.1,1.4,5.9,2.9,9.6,2.9c5.3,0,7.7-2.6,7.7-5.9c0-3.5-2.1-5.4-7.4-7.3
				c-7.2-2.6-10.5-6.5-10.5-11.3c0-6.4,5.2-11.7,13.8-11.7c4,0,7.6,1.2,9.8,2.5l-1.8,5.3c-1.6-1-4.4-2.3-8.2-2.3
				c-4.3,0-6.7,2.5-6.7,5.4c0,3.3,2.4,4.8,7.6,6.8c6.9,2.6,10.5,6.1,10.5,12c0,7-5.4,11.9-14.9,11.9c-4.4,0-8.4-1.1-11.2-2.7
				L1082.3,191.8z"/>
			<path class="st2" d="M1118.5,159.4l8.7,23.5c0.9,2.6,1.9,5.8,2.6,8.2h0.2c0.7-2.4,1.6-5.4,2.6-8.3l7.9-23.4h7.7l-10.9,28.4
				c-5.2,13.7-8.7,20.7-13.7,24.9c-3.5,3.1-7.1,4.4-8.9,4.7l-1.8-6.1c1.8-0.6,4.2-1.7,6.3-3.5c2-1.6,4.4-4.4,6.1-8.1
				c0.3-0.7,0.6-1.3,0.6-1.7c0-0.4-0.2-1-0.5-1.9l-14.7-36.7H1118.5z"/>
			<path class="st2" d="M1154.7,170.2c0-4.1-0.1-7.5-0.3-10.8h6.4l0.4,6.6h0.2c2-3.8,6.6-7.5,13.2-7.5c5.5,0,14.1,3.3,14.1,17v23.8
				h-7.2v-23c0-6.4-2.4-11.8-9.2-11.8c-4.8,0-8.5,3.4-9.7,7.4c-0.3,0.9-0.5,2.1-0.5,3.4v24h-7.2V170.2z"/>
			<path class="st2" d="M1228.8,197.8c-1.9,1-6.1,2.3-11.4,2.3c-12,0-19.8-8.2-19.8-20.3c0-12.3,8.4-21.2,21.4-21.2
				c4.3,0,8.1,1.1,10,2.1l-1.6,5.6c-1.7-1-4.4-1.9-8.4-1.9c-9.1,0-14.1,6.8-14.1,15.1c0,9.2,5.9,14.9,13.8,14.9c4.1,0,6.8-1.1,8.9-2
				L1228.8,197.8z"/>
		</g>
	</g>
</g>
<g>
	<path class="st0" d="M169.1,105.4c-2.5,1.1-3.7,4-2.6,6.5c1.1,2.5,4,3.7,6.5,2.6l20.2-8.8l-37.7,108.9
		c-3.7,10.7-10.6,19.4-19.5,24.7c-8.6,5.1-18,6.3-26.5,3.4c-8.5-2.9-15.2-9.7-18.8-19.1c-3.7-9.7-3.7-20.8,0-31.5l41.4-119.5
		l7.8-21.8c5.9,3.6,10.5,9.3,13.3,16.5c3.7,9.7,3.7,20.8,0,31.5l-41.4,119.6c-0.9,2.6,0.5,5.4,3.1,6.3c0.5,0.2,1.1,0.3,1.6,0.3
		c2.1,0,4-1.3,4.7-3.4l41.4-119.6c4.5-12.9,4.4-26.5-0.1-38.3c-4.7-12.1-13.5-21-24.8-24.9c-23.1-8-49.4,7.4-58.7,34.3L34.5,201.9
		l47.2-14.1l-0.4,1.1c-4.5,12.9-4.4,26.5,0.1,38.3c4.7,12.1,13.5,21,24.8,24.9c4.1,1.4,8.4,2.1,12.7,2.1c7.5,0,15.1-2.1,22.2-6.4
		c10.9-6.5,19.4-17.2,23.8-30l45.1-130.3L169.1,105.4z M50.2,186.8L88.5,76.4c7-20.2,25.3-32.5,42.2-29.2l-7.9,22.1l-37,106.9
		L50.2,186.8z"/>
	
		<linearGradient id="SVGID_00000173862574936473255950000014015237370063929502_" gradientUnits="userSpaceOnUse" x1="50.2367" y1="116.781" x2="130.684" y2="116.781">
		<stop  offset="0" style="stop-color:#304881"/>
		<stop  offset="0.4732" style="stop-color:#2F4D82"/>
		<stop  offset="1" style="stop-color:#00959D"/>
	</linearGradient>
	<path style="fill:url(#SVGID_00000173862574936473255950000014015237370063929502_);" d="M130.7,47.3l-7.9,22.1l-37,106.9
		l-35.5,10.6L88.5,76.4C95.4,56.3,113.8,43.9,130.7,47.3z"/>
</g>
<g>
	<g>
		<path class="st0" d="M-972.8,277.4v-60h8.5l19.2,30.4c4.5,7,7.9,13.4,10.8,19.5l0.2-0.1c-0.7-8-0.9-15.3-0.9-24.7v-25.1h7.3v60
			h-7.8l-19-30.4c-4.2-6.7-8.2-13.5-11.2-20l-0.3,0.1c0.4,7.6,0.6,14.8,0.6,24.7v25.6H-972.8z"/>
		<path class="st0" d="M-878.5,265.7c0,4.5,0.1,8.4,0.4,11.7h-6.9l-0.4-7h-0.2c-2,3.5-6.6,8-14.2,8c-6.8,0-14.9-3.7-14.9-18.9v-25.2
			h7.8v23.9c0,8.2,2.5,13.7,9.6,13.7c5.3,0,8.9-3.6,10.3-7.1c0.4-1.2,0.7-2.6,0.7-4v-26.4h7.8V265.7z"/>
		<path class="st0" d="M-865.5,246c0-4.4-0.1-8.1-0.4-11.7h6.9l0.4,6.9h0.3c2.4-4.1,6.4-7.9,13.5-7.9c5.9,0,10.3,3.6,12.2,8.6h0.2
			c1.3-2.4,3-4.3,4.8-5.6c2.6-2,5.4-3,9.5-3c5.7,0,14.2,3.7,14.2,18.7v25.4h-7.7v-24.4c0-8.3-3-13.3-9.3-13.3
			c-4.5,0-7.9,3.3-9.3,7.1c-0.4,1.1-0.6,2.5-0.6,3.9v26.6h-7.7v-25.8c0-6.9-3-11.8-9-11.8c-4.9,0-8.5,3.9-9.7,7.8
			c-0.4,1.2-0.6,2.5-0.6,3.8v26h-7.7V246z"/>
		<path class="st0" d="M-767.4,277.4l-0.6-5.4h-0.3c-2.4,3.4-7,6.4-13.2,6.4c-8.7,0-13.2-6.1-13.2-12.4c0-10.4,9.3-16.1,25.9-16
			v-0.9c0-3.6-1-10-9.8-10c-4,0-8.2,1.2-11.2,3.2l-1.8-5.2c3.6-2.3,8.7-3.8,14.2-3.8c13.2,0,16.4,9,16.4,17.6v16.1
			c0,3.7,0.2,7.4,0.7,10.3H-767.4z M-768.5,255.5c-8.5-0.2-18.2,1.3-18.2,9.7c0,5.1,3.4,7.5,7.4,7.5c5.6,0,9.2-3.6,10.4-7.2
			c0.3-0.8,0.4-1.7,0.4-2.5V255.5z"/>
		<path class="st2" d="M-749.4,269.4c2.3,1.5,6.4,3.1,10.3,3.1c5.7,0,8.4-2.8,8.4-6.4c0-3.7-2.2-5.8-8-7.9
			c-7.7-2.8-11.4-7-11.4-12.2c0-6.9,5.6-12.6,14.9-12.6c4.4,0,8.2,1.2,10.6,2.7l-2,5.7c-1.7-1.1-4.8-2.5-8.8-2.5
			c-4.6,0-7.2,2.7-7.2,5.9c0,3.6,2.6,5.2,8.2,7.3c7.5,2.8,11.3,6.6,11.3,13c0,7.6-5.9,12.9-16.1,12.9c-4.7,0-9.1-1.2-12.1-2.9
			L-749.4,269.4z"/>
		<path class="st2" d="M-710.3,234.4l9.4,25.5c1,2.8,2,6.2,2.8,8.8h0.2c0.8-2.6,1.7-5.9,2.8-9l8.5-25.3h8.3l-11.7,30.7
			c-5.6,14.8-9.4,22.3-14.8,27c-3.8,3.4-7.7,4.7-9.6,5.1l-2-6.6c2-0.6,4.5-1.9,6.9-3.8c2.1-1.7,4.8-4.7,6.6-8.7
			c0.4-0.8,0.6-1.4,0.6-1.9s-0.2-1.1-0.5-2l-15.9-39.7H-710.3z"/>
		<path class="st2" d="M-671.2,246c0-4.4-0.1-8.1-0.4-11.7h6.9l0.4,7.1h0.2c2.1-4.1,7.1-8.1,14.2-8.1c6,0,15.2,3.6,15.2,18.3v25.7
			h-7.8v-24.8c0-6.9-2.6-12.7-10-12.7c-5.2,0-9.2,3.6-10.5,8c-0.4,1-0.5,2.3-0.5,3.6v25.9h-7.8V246z"/>
		<path class="st2" d="M-591.1,275.8c-2,1.1-6.6,2.5-12.4,2.5c-13,0-21.5-8.8-21.5-22c0-13.3,9.1-22.9,23.1-22.9
			c4.6,0,8.7,1.2,10.9,2.2l-1.8,6.1c-1.9-1.1-4.8-2-9.1-2c-9.9,0-15.2,7.3-15.2,16.3c0,10,6.4,16.1,15,16.1c4.5,0,7.4-1.2,9.6-2.1
			L-591.1,275.8z"/>
	</g>
</g>
<g>
	<g>
		<path class="st2" d="M-78.4-223.8v-60.6h8.5l19.4,30.7c4.5,7.1,8,13.5,10.9,19.7l0.2-0.1c-0.7-8.1-0.9-15.5-0.9-24.9v-25.4h7.4
			v60.6h-7.9l-19.2-30.7c-4.2-6.7-8.3-13.7-11.3-20.2l-0.3,0.1c0.5,7.6,0.6,14.9,0.6,25v25.9H-78.4z"/>
		<path class="st2" d="M16.9-235.7c0,4.5,0.1,8.5,0.4,11.9h-7l-0.4-7.1H9.6c-2.1,3.5-6.7,8.1-14.4,8.1c-6.8,0-15-3.8-15-19.1v-25.4
			h7.9v24.1c0,8.3,2.5,13.8,9.7,13.8c5.3,0,9-3.7,10.4-7.2c0.4-1.2,0.7-2.6,0.7-4v-26.7h7.9V-235.7z"/>
		<path class="st2" d="M30-255.5c0-4.5-0.1-8.2-0.4-11.8h6.9l0.4,7h0.3c2.4-4.1,6.5-8,13.7-8c5.9,0,10.4,3.6,12.3,8.7h0.2
			c1.3-2.4,3.1-4.3,4.9-5.7c2.6-2,5.5-3.1,9.6-3.1c5.8,0,14.3,3.8,14.3,18.9v25.6h-7.7v-24.6c0-8.4-3.1-13.4-9.4-13.4
			c-4.5,0-8,3.3-9.4,7.2c-0.4,1.1-0.6,2.5-0.6,4v26.9h-7.7v-26.1c0-6.9-3.1-12-9.1-12c-4.9,0-8.5,4-9.8,7.9
			c-0.4,1.2-0.6,2.5-0.6,3.9v26.3H30V-255.5z"/>
		<path class="st2" d="M129.1-223.8l-0.6-5.5h-0.3c-2.4,3.4-7.1,6.5-13.3,6.5c-8.8,0-13.3-6.2-13.3-12.5c0-10.5,9.4-16.3,26.2-16.2
			v-0.9c0-3.6-1-10.1-9.9-10.1c-4,0-8.3,1.3-11.3,3.2l-1.8-5.2c3.6-2.3,8.8-3.9,14.3-3.9c13.3,0,16.5,9.1,16.5,17.8v16.3
			c0,3.8,0.2,7.5,0.7,10.4H129.1z M127.9-246c-8.6-0.2-18.4,1.3-18.4,9.8c0,5.1,3.4,7.6,7.5,7.6c5.7,0,9.3-3.6,10.5-7.3
			c0.3-0.8,0.4-1.7,0.4-2.5V-246z"/>
		<path class="st4" d="M147.3-231.9c2.3,1.5,6.5,3.1,10.4,3.1c5.8,0,8.5-2.9,8.5-6.5c0-3.8-2.2-5.8-8.1-8
			c-7.8-2.8-11.5-7.1-11.5-12.3c0-7,5.7-12.8,15-12.8c4.4,0,8.3,1.3,10.7,2.7l-2,5.8c-1.7-1.1-4.9-2.5-8.9-2.5
			c-4.7,0-7.3,2.7-7.3,5.9c0,3.6,2.6,5.2,8.3,7.4c7.6,2.9,11.4,6.7,11.4,13.1c0,7.6-5.9,13-16.3,13c-4.8,0-9.2-1.2-12.2-3
			L147.3-231.9z"/>
		<path class="st4" d="M186.8-267.3l9.5,25.7c1,2.9,2.1,6.3,2.8,8.9h0.2c0.8-2.6,1.7-5.9,2.8-9.1l8.6-25.5h8.4l-11.9,31
			c-5.7,14.9-9.5,22.6-14.9,27.2c-3.9,3.4-7.7,4.8-9.7,5.1l-2-6.7c2-0.6,4.6-1.9,6.9-3.9c2.2-1.7,4.9-4.8,6.7-8.8
			c0.4-0.8,0.6-1.4,0.6-1.9s-0.2-1.1-0.5-2.1l-16.1-40.1H186.8z"/>
		<path class="st4" d="M226.3-255.5c0-4.5-0.1-8.2-0.4-11.8h7l0.5,7.2h0.2c2.2-4.1,7.2-8.2,14.4-8.2c6,0,15.4,3.6,15.4,18.5v26h-7.9
			v-25.1c0-7-2.6-12.9-10.1-12.9c-5.2,0-9.3,3.7-10.6,8.1c-0.4,1-0.5,2.3-0.5,3.7v26.2h-7.9V-255.5z"/>
		<path class="st4" d="M307.2-225.4c-2.1,1.1-6.7,2.5-12.5,2.5c-13.1,0-21.7-8.9-21.7-22.2c0-13.4,9.2-23.1,23.4-23.1
			c4.7,0,8.8,1.2,11,2.2l-1.8,6.1c-1.9-1.1-4.9-2.1-9.2-2.1c-10,0-15.4,7.4-15.4,16.5c0,10.1,6.5,16.3,15.1,16.3
			c4.5,0,7.5-1.2,9.7-2.2L307.2-225.4z"/>
	</g>
</g>
<g>
	<path class="st2" d="M169.9-453.3c-2.5,1.1-3.7,4-2.6,6.5c1.1,2.5,4,3.7,6.5,2.6l20.2-8.8l-37.7,108.9
		c-3.7,10.7-10.6,19.5-19.5,24.7c-8.6,5.1-18,6.3-26.5,3.4c-8.5-2.9-15.2-9.7-18.8-19.1c-3.7-9.7-3.7-20.8,0-31.5L132.9-486
		l7.8-21.8c5.9,3.6,10.5,9.3,13.3,16.5c3.7,9.7,3.7,20.8,0,31.5l-41.4,119.6c-0.9,2.6,0.5,5.4,3.1,6.3c0.5,0.2,1.1,0.3,1.6,0.3
		c2.1,0,4-1.3,4.7-3.4l41.4-119.6c4.5-12.9,4.4-26.5-0.1-38.3c-4.7-12.1-13.5-21-24.8-24.9c-23.1-8-49.4,7.4-58.7,34.3L35.3-356.8
		l47.2-14.1l-0.4,1.1c-4.5,12.9-4.4,26.5,0.1,38.3c4.7,12.1,13.5,21,24.8,24.9c4.1,1.4,8.4,2.1,12.7,2.1c7.5,0,15.1-2.1,22.2-6.4
		c10.9-6.5,19.4-17.2,23.8-30l45.1-130.3L169.9-453.3z M51-371.8l38.2-110.4c7-20.2,25.3-32.5,42.2-29.2l-7.9,22.1l-37,106.9
		L51-371.8z"/>
	
		<linearGradient id="SVGID_00000135656187446399270470000014606527715311037369_" gradientUnits="userSpaceOnUse" x1="50.9979" y1="-441.8966" x2="131.4453" y2="-441.8966">
		<stop  offset="0" style="stop-color:#304881"/>
		<stop  offset="1" style="stop-color:#00959D"/>
	</linearGradient>
	<path style="fill:url(#SVGID_00000135656187446399270470000014606527715311037369_);" d="M131.4-511.4l-7.9,22.1l-37,106.9
		L51-371.8l38.2-110.4C96.2-502.4,114.5-514.7,131.4-511.4z"/>
</g>
<rect x="1557" y="-431.6" class="st0" width="705" height="355"/>
<g>
	<g>
		<g>
			<path class="st2" d="M877.7-357.9v-55.5h7.8l17.8,28.1c4.1,6.5,7.3,12.4,10,18l0.2-0.1c-0.7-7.4-0.8-14.2-0.8-22.8v-23.2h6.8
				v55.5h-7.2L894.5-386c-3.9-6.2-7.6-12.5-10.4-18.5l-0.2,0.1c0.4,7,0.6,13.7,0.6,22.9v23.7H877.7z"/>
			<path class="st2" d="M965-368.7c0,4.1,0.1,7.7,0.3,10.9h-6.4l-0.4-6.5h-0.2c-1.9,3.2-6.1,7.4-13.2,7.4c-6.3,0-13.8-3.5-13.8-17.5
				v-23.3h7.2v22.1c0,7.6,2.3,12.7,8.9,12.7c4.9,0,8.2-3.4,9.6-6.6c0.4-1.1,0.7-2.4,0.7-3.7v-24.5h7.2V-368.7z"/>
			<path class="st2" d="M977-386.9c0-4.1-0.1-7.5-0.3-10.8h6.3l0.3,6.4h0.2c2.2-3.8,5.9-7.3,12.5-7.3c5.4,0,9.6,3.3,11.3,8h0.2
				c1.2-2.2,2.8-4,4.4-5.2c2.4-1.8,5-2.8,8.8-2.8c5.3,0,13.1,3.5,13.1,17.3v23.5h-7.1v-22.6c0-7.7-2.8-12.3-8.6-12.3
				c-4.1,0-7.3,3-8.6,6.6c-0.3,1-0.6,2.3-0.6,3.6v24.6h-7.1v-23.9c0-6.3-2.8-11-8.3-11c-4.5,0-7.8,3.6-9,7.2
				c-0.4,1.1-0.6,2.3-0.6,3.5v24H977V-386.9z"/>
			<path class="st2" d="M1067.7-357.9l-0.6-5h-0.2c-2.2,3.1-6.5,5.9-12.2,5.9c-8.1,0-12.2-5.7-12.2-11.4c0-9.6,8.6-14.9,24-14.8
				v-0.8c0-3.3-0.9-9.2-9.1-9.2c-3.7,0-7.6,1.2-10.4,3l-1.6-4.8c3.3-2.1,8.1-3.5,13.1-3.5c12.2,0,15.1,8.3,15.1,16.3v14.9
				c0,3.5,0.2,6.8,0.7,9.6H1067.7z M1066.6-378.2c-7.9-0.2-16.9,1.2-16.9,9c0,4.7,3.1,6.9,6.8,6.9c5.2,0,8.5-3.3,9.6-6.7
				c0.2-0.7,0.4-1.6,0.4-2.3V-378.2z"/>
			<path class="st4" d="M1084.3-365.3c2.1,1.4,5.9,2.9,9.6,2.9c5.3,0,7.7-2.6,7.7-5.9c0-3.5-2.1-5.4-7.4-7.3
				c-7.2-2.6-10.5-6.5-10.5-11.3c0-6.4,5.2-11.7,13.8-11.7c4,0,7.6,1.2,9.8,2.5l-1.8,5.3c-1.6-1-4.4-2.3-8.2-2.3
				c-4.3,0-6.7,2.5-6.7,5.4c0,3.3,2.4,4.8,7.6,6.8c6.9,2.6,10.5,6.1,10.5,12c0,7-5.4,11.9-14.9,11.9c-4.4,0-8.4-1.1-11.2-2.7
				L1084.3-365.3z"/>
			<path class="st4" d="M1120.6-397.7l8.7,23.5c0.9,2.6,1.9,5.8,2.6,8.2h0.2c0.7-2.4,1.6-5.4,2.6-8.3l7.9-23.4h7.7l-10.9,28.4
				c-5.2,13.7-8.7,20.7-13.7,24.9c-3.5,3.1-7.1,4.4-8.9,4.7l-1.8-6.1c1.8-0.6,4.2-1.7,6.3-3.5c2-1.6,4.4-4.4,6.1-8.1
				c0.3-0.7,0.6-1.3,0.6-1.7c0-0.4-0.2-1-0.5-1.9l-14.7-36.7H1120.6z"/>
			<path class="st4" d="M1156.7-386.9c0-4.1-0.1-7.5-0.3-10.8h6.4l0.4,6.6h0.2c2-3.8,6.6-7.5,13.2-7.5c5.5,0,14.1,3.3,14.1,17v23.8
				h-7.2v-23c0-6.4-2.4-11.8-9.2-11.8c-4.8,0-8.5,3.4-9.7,7.4c-0.3,0.9-0.5,2.1-0.5,3.4v24h-7.2V-386.9z"/>
			<path class="st4" d="M1230.8-359.3c-1.9,1-6.1,2.3-11.4,2.3c-12,0-19.8-8.2-19.8-20.3c0-12.3,8.4-21.2,21.4-21.2
				c4.3,0,8.1,1.1,10,2.1l-1.6,5.6c-1.7-1-4.4-1.9-8.4-1.9c-9.1,0-14.1,6.8-14.1,15.1c0,9.2,5.9,14.9,13.8,14.9c4.1,0,6.8-1.1,8.9-2
				L1230.8-359.3z"/>
		</g>
	</g>
	<g>
		<path class="st2" d="M785.9-428.1c-2.8,1.2-4.2,4.6-2.9,7.4c1.2,2.9,4.6,4.2,7.4,2.9l22.9-10l-42.7,123.3c-4.2,12.1-12,22-22.1,28
			c-9.8,5.8-20.4,7.2-30.1,3.8c-9.6-3.3-17.2-11-21.3-21.6c-4.2-10.9-4.2-23.6,0-35.7L744-465.2l8.9-24.7
			c6.7,4.1,11.9,10.5,15.1,18.7c4.2,10.9,4.2,23.6,0,35.7L721.1-300c-1,2.9,0.5,6.1,3.5,7.2c0.6,0.2,1.2,0.3,1.8,0.3
			c2.3,0,4.5-1.5,5.3-3.8l46.9-135.5c5.1-14.6,5-30-0.2-43.4c-5.3-13.7-15.3-23.8-28.1-28.2c-26.1-9-55.9,8.4-66.5,38.8l-50.5,145.8
			l53.5-15.9l-0.4,1.2c-5.1,14.6-5,30,0.2,43.4c5.3,13.7,15.3,23.8,28.1,28.2c4.7,1.6,9.5,2.4,14.4,2.4c8.5,0,17.1-2.4,25.1-7.2
			c12.3-7.4,21.9-19.4,27-34l51.1-147.6L785.9-428.1z M651.2-335.8l43.3-125.1c7.9-22.9,28.7-36.8,47.8-33l-9,25l-41.9,121.2
			L651.2-335.8z"/>
		
			<linearGradient id="SVGID_00000056409396959558267010000014413641978893971619_" gradientUnits="userSpaceOnUse" x1="651.1953" y1="-415.1993" x2="742.3362" y2="-415.1993">
			<stop  offset="0" style="stop-color:#304881"/>
			<stop  offset="1" style="stop-color:#00959D"/>
		</linearGradient>
		<path style="fill:url(#SVGID_00000056409396959558267010000014413641978893971619_);" d="M742.3-494l-9,25l-41.9,121.2l-40.2,12
			l43.3-125.1C702.4-483.8,723.2-497.7,742.3-494z"/>
	</g>
</g>
<g>
	<path class="st2" d="M-456.3-177.4c-2.5,1.1-3.7,4-2.6,6.5c1.1,2.5,4,3.7,6.5,2.6l20.2-8.8l-37.7,108.9
		c-3.7,10.7-10.6,19.5-19.5,24.7c-8.6,5.1-18,6.3-26.5,3.4c-8.5-2.9-15.2-9.7-18.8-19.1c-3.7-9.7-3.7-20.8,0-31.5l41.4-119.5
		l7.8-21.8c5.9,3.6,10.5,9.3,13.3,16.5c3.7,9.7,3.7,20.8,0,31.5l-41.4,119.6c-0.9,2.6,0.5,5.4,3.1,6.3c0.5,0.2,1.1,0.3,1.6,0.3
		c2.1,0,4-1.3,4.7-3.4l41.4-119.6c4.5-12.9,4.4-26.5-0.1-38.3c-4.7-12.1-13.5-21-24.8-24.9c-23.1-8-49.4,7.4-58.7,34.3L-590.9-81
		l47.2-14.1l-0.4,1.1c-4.5,12.9-4.4,26.5,0.1,38.3c4.7,12.1,13.5,21,24.8,24.9c4.1,1.4,8.4,2.1,12.7,2.1c7.5,0,15.1-2.1,22.2-6.4
		c10.9-6.5,19.4-17.2,23.8-30l45.1-130.3L-456.3-177.4z M-575.2-96l38.2-110.4c7-20.2,25.3-32.5,42.2-29.2l-7.9,22.1l-37,106.9
		L-575.2-96z"/>
	
		<linearGradient id="SVGID_00000049930283464045664270000013189340997468255895_" gradientUnits="userSpaceOnUse" x1="-575.1831" y1="-166.063" x2="-494.7357" y2="-166.063">
		<stop  offset="0" style="stop-color:#304881"/>
		<stop  offset="1" style="stop-color:#00959D"/>
	</linearGradient>
	<path style="fill:url(#SVGID_00000049930283464045664270000013189340997468255895_);" d="M-494.7-235.6l-7.9,22.1l-37,106.9
		L-575.2-96l38.2-110.4C-530-226.6-511.7-238.9-494.7-235.6z"/>
</g>
</svg>
