<svg width="131" height="66" viewBox="0 0 131 66" fill="none" xmlns="http://www.w3.org/2000/svg">
<mask id="mask0_1009_75935" style="mask-type:alpha" maskUnits="userSpaceOnUse" x="1" y="1" width="129" height="64">
<rect width="128" height="64" transform="translate(1.6665 1)" fill="url(#paint0_linear_1009_75935)"/>
</mask>
<g mask="url(#mask0_1009_75935)">
<path opacity="0.2" d="M125.99 61.5642L129.667 65H1.6665V1C2.26064 2.90879 3.4935 12.3174 3.67174 12.3174C3.84998 12.3174 5.00856 4.8236 5.56557 5.96887L10.3558 9.4047L13.1408 23.7702L17.5969 12.2002L19.9363 8.76441L23.2783 23.7702H26.7318L29.6282 15.7533C30.7422 14.608 33.0148 12.3174 33.1931 12.3174C33.3713 12.3174 34.8269 10.0269 35.5325 8.88162H37.3149L41.5481 16.5107L45.2244 15.7533L46.8954 23.7702L51.9085 27.206L54.4707 30.6418L57.3671 36.3682L60.1521 30.5427H61.3776L64.7196 38.289L67.9502 36.3682L70.7353 30.6418H72.4063L75.3027 38.3881L79.4246 30.6418L83.3236 25.0507L87.2226 36.3682L91.1217 57.2175L94.0181 50.1115L97.1374 53.5473L101.371 50.1115L108.055 56.9831L111.174 53.5473L115.407 61.5642L118.972 56.9831L122.537 61.5642H125.99Z" fill="#F04438"/>
</g>
<path d="M129.667 65L125.99 61.5642H122.537L118.972 56.9831L115.407 61.5642L111.174 53.5473L108.055 56.9831L101.371 50.1115L97.1374 53.5473L94.0181 50.1115L91.1217 57.2175L87.2226 36.3682L83.3236 25.0507L79.4246 30.6418L75.3027 38.3881L72.4063 30.6418H70.7353L67.9502 36.3682L64.7196 38.289L61.3776 30.5427H60.1521L57.3671 36.3682L54.4707 30.6418L51.9085 27.206L46.8954 23.7702L45.2244 15.7533L41.5481 16.5107L37.3149 8.88162H35.5325C34.8269 10.0269 33.3713 12.3174 33.1931 12.3174C33.0148 12.3174 30.7422 14.608 29.6282 15.7533L26.7318 23.7702H23.2783L19.9363 8.76441L17.5969 12.2002L13.1408 23.7702L10.3558 9.4047L5.56557 5.96887C5.00856 4.8236 3.84998 12.3174 3.67174 12.3174C3.4935 12.3174 2.26064 2.90879 1.6665 1" stroke="#F04438" stroke-width="2" stroke-linecap="round" stroke-linejoin="round"/>
<g opacity="0.2">
<rect x="72.6665" y="18" width="20" height="20" rx="10" stroke="#F04438" stroke-width="2"/>
</g>
<rect x="77.6665" y="23" width="10" height="10" rx="5" fill="white"/>
<rect x="77.6665" y="23" width="10" height="10" rx="5" stroke="#F04438" stroke-width="2"/>
<defs>
<linearGradient id="paint0_linear_1009_75935" x1="64" y1="0" x2="64" y2="64" gradientUnits="userSpaceOnUse">
<stop/>
<stop offset="1" stop-opacity="0"/>
</linearGradient>
</defs>
</svg>
