<svg width="640" height="640" viewBox="0 0 640 640" fill="none" xmlns="http://www.w3.org/2000/svg">
<path d="M159.2 26.666H80.8001C46.9334 26.666 26.6667 46.9327 26.6667 80.7993V159.199C26.6667 193.066 46.9334 213.333 80.8001 213.333H159.2C193.067 213.333 213.333 193.066 213.333 159.199V80.7993C213.333 46.9327 193.067 26.666 159.2 26.666ZM172.533 148.266C179.2 154.933 179.2 165.866 172.533 172.533C169.067 175.733 164.533 177.333 160.267 177.333C156 177.333 151.733 175.733 148.267 172.533L119.733 144.266L92.0001 172.533C88.5334 175.733 84.2667 177.333 79.4667 177.333C75.2001 177.333 70.9334 175.733 67.4667 172.533C60.8001 165.866 60.8001 154.933 67.4667 148.266L96.0001 119.999L67.7334 91.9993C61.0667 85.3327 61.0667 74.3993 67.7334 67.7327C74.4001 61.066 85.3334 61.066 92.0001 67.7327L119.733 95.9993L148 67.7327C154.667 61.066 165.6 61.066 172.267 67.7327C178.933 74.3993 178.933 85.3327 172.267 91.9993L144.267 119.999L172.533 148.266Z" fill="#F2F4F7"/>
<path d="M573.332 421.858C573.332 425.858 571.999 429.858 568.532 433.324C529.865 472.258 461.065 541.591 421.599 581.324C418.132 585.058 413.599 586.658 409.065 586.658C400.265 586.658 391.732 579.724 391.732 569.591V476.258C391.732 437.324 424.799 405.058 465.332 405.058C490.665 404.791 525.865 404.791 555.999 404.791C566.399 404.791 573.332 413.058 573.332 421.858Z" fill="#F2F4F7"/>
<path d="M573.332 421.858C573.332 425.858 571.999 429.858 568.532 433.324C529.865 472.258 461.065 541.591 421.599 581.324C418.132 585.058 413.599 586.658 409.065 586.658C400.265 586.658 391.732 579.724 391.732 569.591V476.258C391.732 437.324 424.799 405.058 465.332 405.058C490.665 404.791 525.865 404.791 555.999 404.791C566.399 404.791 573.332 413.058 573.332 421.858Z" fill="#F2F4F7"/>
<path d="M443.467 53.334H280C265.333 53.334 253.333 65.334 253.333 80.0007V173.334C253.333 217.601 217.6 253.334 173.333 253.334H93.3334C78.6667 253.334 66.6667 265.334 66.6667 280.001V456.801C66.6667 528.534 124.8 586.667 196.533 586.667H325.067C339.733 586.667 351.733 574.667 351.733 560.001V476.267C351.733 414.934 402.667 365.067 465.333 365.067C479.467 364.801 513.867 364.801 546.667 364.801C561.333 364.801 573.333 353.067 573.333 338.134V183.201C573.333 111.467 515.2 53.334 443.467 53.334ZM232.533 453.601H162.133C151.2 453.601 142.133 444.534 142.133 433.601C142.133 422.401 151.2 413.334 162.133 413.334H232.533C244 413.334 252.533 422.401 252.533 433.601C252.533 444.534 244 453.601 232.533 453.601ZM306.933 354.667H162.133C151.2 354.667 142.133 345.601 142.133 334.667C142.133 323.467 151.2 314.401 162.133 314.401H306.933C317.867 314.401 327.2 323.467 327.2 334.667C327.2 345.601 317.867 354.667 306.933 354.667Z" fill="#F2F4F7"/>
</svg>
