<?xml version="1.0" encoding="utf-8"?>
<!-- Generator: Adobe Illustrator 27.3.1, SVG Export Plug-In . SVG Version: 6.00 Build 0)  -->
<svg version="1.1" id="Layer_1" xmlns="http://www.w3.org/2000/svg" xmlns:xlink="http://www.w3.org/1999/xlink" x="0px" y="0px"
	 viewBox="0 0 700 350" style="enable-background:new 0 0 700 350;" xml:space="preserve">
<style type="text/css">
	.st0{fill:#1D2151;}
	.st1{fill:url(#SVGID_1_);}
	.st2{fill:#46C3D3;}
	.st3{fill:url(#SVGID_00000018918942383731186570000007324218074350794629_);}
	.st4{fill:#FFFFFF;}
	.st5{fill:url(#SVGID_00000167389818926832627180000000822199572648386993_);}
	.st6{fill:url(#SVGID_00000070099241655470472120000004396140544257529508_);}
	.st7{fill:url(#SVGID_00000118379037955185057880000006698635605144995241_);}
</style>
<g>
	<g>
		<path class="st0" d="M190.7,686.7c-2.8,1.2-4.2,4.6-2.9,7.4c1.2,2.9,4.6,4.2,7.4,2.9l22.9-10l-42.7,123.3c-4.2,12.1-12,22-22.1,28
			c-9.8,5.8-20.4,7.2-30.1,3.8c-9.6-3.3-17.2-11-21.3-21.6c-4.2-10.9-4.2-23.6,0-35.7l46.9-135.4l8.9-24.7
			c6.7,4.1,11.9,10.5,15.1,18.7c4.2,10.9,4.2,23.6,0,35.7l-46.9,135.5c-1,2.9,0.5,6.1,3.5,7.2c0.6,0.2,1.2,0.3,1.8,0.3
			c2.3,0,4.5-1.5,5.3-3.8l46.9-135.5c5.1-14.6,5-30-0.2-43.4c-5.3-13.7-15.3-23.8-28.1-28.2c-26.1-9-55.9,8.4-66.5,38.8L38.2,796
			L91.7,780l-0.4,1.2c-5.1,14.6-5,30,0.2,43.4c5.3,13.7,15.3,23.8,28.1,28.2c4.7,1.6,9.5,2.4,14.4,2.4c8.5,0,17.1-2.4,25.1-7.2
			c12.3-7.4,21.9-19.4,27-34l51.1-147.6L190.7,686.7z M56,778.9l43.3-125.1c7.9-22.9,28.7-36.8,47.8-33l-9,25L96.2,766.9L56,778.9z"
			/>
		<linearGradient id="SVGID_1_" gradientUnits="userSpaceOnUse" x1="55.977" y1="699.5448" x2="147.1179" y2="699.5448">
			<stop  offset="0" style="stop-color:#304881"/>
			<stop  offset="0.4732" style="stop-color:#2F4D82"/>
			<stop  offset="1" style="stop-color:#00959D"/>
		</linearGradient>
		<path class="st1" d="M147.1,620.8l-9,25L96.2,766.9l-40.2,12l43.3-125.1C107.2,631,128,617,147.1,620.8z"/>
	</g>
	<g>
		<g>
			<path class="st0" d="M282.5,756.9v-55.5h7.8l17.8,28.1c4.1,6.5,7.3,12.4,10,18l0.2-0.1c-0.7-7.4-0.8-14.2-0.8-22.8v-23.2h6.8
				v55.5h-7.2l-17.6-28.2c-3.9-6.2-7.6-12.5-10.4-18.5l-0.2,0.1c0.4,7,0.6,13.7,0.6,22.9v23.7H282.5z"/>
			<path class="st0" d="M369.7,746c0,4.1,0.1,7.7,0.3,10.9h-6.4l-0.4-6.5h-0.2c-1.9,3.2-6.1,7.4-13.2,7.4c-6.3,0-13.8-3.5-13.8-17.5
				V717h7.2v22.1c0,7.6,2.3,12.7,8.9,12.7c4.9,0,8.2-3.4,9.6-6.6c0.4-1.1,0.7-2.4,0.7-3.7V717h7.2V746z"/>
			<path class="st0" d="M381.8,727.8c0-4.1-0.1-7.5-0.3-10.8h6.3l0.3,6.4h0.2c2.2-3.8,5.9-7.3,12.5-7.3c5.4,0,9.6,3.3,11.3,8h0.2
				c1.2-2.2,2.8-4,4.4-5.2c2.4-1.8,5-2.8,8.8-2.8c5.3,0,13.1,3.5,13.1,17.3v23.5h-7.1v-22.6c0-7.7-2.8-12.3-8.6-12.3
				c-4.1,0-7.3,3-8.6,6.6c-0.3,1-0.6,2.3-0.6,3.6v24.6h-7.1V733c0-6.3-2.8-11-8.3-11c-4.5,0-7.8,3.6-9,7.2c-0.4,1.1-0.6,2.3-0.6,3.5
				v24h-7.1V727.8z"/>
			<path class="st0" d="M472.5,756.9l-0.6-5h-0.2c-2.2,3.1-6.5,5.9-12.2,5.9c-8.1,0-12.2-5.7-12.2-11.4c0-9.6,8.6-14.9,24-14.8v-0.8
				c0-3.3-0.9-9.2-9.1-9.2c-3.7,0-7.6,1.2-10.4,3l-1.6-4.8c3.3-2.1,8.1-3.5,13.1-3.5c12.2,0,15.2,8.3,15.2,16.3v14.9
				c0,3.5,0.2,6.8,0.7,9.6H472.5z M471.4,736.6c-7.9-0.2-16.9,1.2-16.9,9c0,4.7,3.1,6.9,6.8,6.9c5.2,0,8.5-3.3,9.6-6.7
				c0.2-0.7,0.4-1.6,0.4-2.3V736.6z"/>
			<path class="st2" d="M489.1,749.5c2.1,1.4,5.9,2.9,9.6,2.9c5.3,0,7.7-2.6,7.7-5.9c0-3.5-2.1-5.4-7.4-7.3
				c-7.2-2.6-10.5-6.5-10.5-11.3c0-6.4,5.2-11.7,13.8-11.7c4,0,7.6,1.2,9.8,2.5l-1.8,5.3c-1.6-1-4.4-2.3-8.2-2.3
				c-4.3,0-6.7,2.5-6.7,5.4c0,3.3,2.4,4.8,7.6,6.8c6.9,2.6,10.5,6.1,10.5,12c0,7-5.4,11.9-14.9,11.9c-4.4,0-8.4-1.1-11.2-2.7
				L489.1,749.5z"/>
			<path class="st2" d="M525.4,717l8.7,23.5c0.9,2.6,1.9,5.8,2.6,8.2h0.2c0.7-2.4,1.6-5.4,2.6-8.3l7.9-23.4h7.7L544,745.4
				c-5.2,13.7-8.7,20.7-13.7,24.9c-3.5,3.1-7.1,4.4-8.9,4.7l-1.8-6.1c1.8-0.6,4.2-1.7,6.3-3.5c2-1.6,4.4-4.4,6.1-8.1
				c0.3-0.7,0.6-1.3,0.6-1.7c0-0.4-0.2-1-0.5-1.9L517.5,717H525.4z"/>
			<path class="st2" d="M561.5,727.8c0-4.1-0.1-7.5-0.3-10.8h6.4l0.4,6.6h0.2c2-3.8,6.6-7.5,13.2-7.5c5.5,0,14.1,3.3,14.1,17v23.8
				h-7.2v-23c0-6.4-2.4-11.8-9.2-11.8c-4.8,0-8.5,3.4-9.7,7.4c-0.3,0.9-0.5,2.1-0.5,3.4v24h-7.2V727.8z"/>
			<path class="st2" d="M635.6,755.4c-1.9,1-6.1,2.3-11.4,2.3c-12,0-19.8-8.2-19.8-20.3c0-12.3,8.4-21.2,21.4-21.2
				c4.3,0,8.1,1.1,10,2.1l-1.6,5.6c-1.7-1-4.4-1.9-8.4-1.9c-9.1,0-14.1,6.8-14.1,15.1c0,9.2,5.9,14.9,13.8,14.9c4.1,0,6.8-1.1,8.9-2
				L635.6,755.4z"/>
		</g>
	</g>
</g>
<g>
	<path class="st0" d="M-424,663.1c-2.5,1.1-3.7,4-2.6,6.5c1.1,2.5,4,3.7,6.5,2.6l20.2-8.8l-37.7,108.9
		c-3.7,10.7-10.6,19.4-19.5,24.7c-8.6,5.1-18,6.3-26.5,3.4c-8.5-2.9-15.2-9.7-18.8-19.1c-3.7-9.7-3.7-20.8,0-31.5l41.4-119.5
		l7.8-21.8c5.9,3.6,10.5,9.3,13.3,16.5c3.7,9.7,3.7,20.8,0,31.5l-41.4,119.6c-0.9,2.6,0.5,5.4,3.1,6.3c0.5,0.2,1.1,0.3,1.6,0.3
		c2.1,0,4-1.3,4.7-3.4l41.4-119.6c4.5-12.9,4.4-26.5-0.1-38.3c-4.7-12.1-13.5-21-24.8-24.9c-23.1-8-49.4,7.4-58.7,34.3l-44.6,128.7
		l47.2-14.1l-0.4,1.1c-4.5,12.9-4.4,26.5,0.1,38.3c4.7,12.1,13.5,21,24.8,24.9c4.1,1.4,8.4,2.1,12.7,2.1c7.5,0,15.1-2.1,22.2-6.4
		c10.9-6.5,19.4-17.2,23.8-30l45.1-130.3L-424,663.1z M-542.9,744.5l38.2-110.4c7-20.2,25.3-32.5,42.2-29.2l-7.9,22.1l-37,106.9
		L-542.9,744.5z"/>
	
		<linearGradient id="SVGID_00000134972449526647182730000002707755401199946919_" gradientUnits="userSpaceOnUse" x1="-542.9219" y1="674.4193" x2="-462.4746" y2="674.4193">
		<stop  offset="0" style="stop-color:#304881"/>
		<stop  offset="0.4732" style="stop-color:#2F4D82"/>
		<stop  offset="1" style="stop-color:#00959D"/>
	</linearGradient>
	<path style="fill:url(#SVGID_00000134972449526647182730000002707755401199946919_);" d="M-462.5,604.9l-7.9,22.1l-37,106.9
		l-35.5,10.6l38.2-110.4C-497.7,613.9-479.4,601.6-462.5,604.9z"/>
</g>
<g>
	<g>
		<path class="st0" d="M-1566,835.1v-60h8.5l19.2,30.4c4.5,7,7.9,13.4,10.8,19.5l0.2-0.1c-0.7-8-0.9-15.3-0.9-24.7v-25.1h7.3v60
			h-7.8l-19-30.4c-4.2-6.7-8.2-13.5-11.2-20l-0.3,0.1c0.4,7.6,0.6,14.8,0.6,24.7v25.6H-1566z"/>
		<path class="st0" d="M-1471.6,823.3c0,4.5,0.1,8.4,0.4,11.7h-6.9l-0.4-7h-0.2c-2,3.5-6.6,8-14.2,8c-6.8,0-14.9-3.7-14.9-18.9V792
			h7.8v23.9c0,8.2,2.5,13.7,9.6,13.7c5.3,0,8.9-3.6,10.3-7.1c0.4-1.2,0.7-2.6,0.7-4V792h7.8V823.3z"/>
		<path class="st0" d="M-1458.6,803.7c0-4.4-0.1-8.1-0.4-11.7h6.9l0.4,6.9h0.3c2.4-4.1,6.4-7.9,13.5-7.9c5.9,0,10.3,3.6,12.2,8.6
			h0.2c1.3-2.4,3-4.3,4.8-5.6c2.6-2,5.4-3,9.5-3c5.7,0,14.2,3.7,14.2,18.7v25.4h-7.7v-24.4c0-8.3-3-13.3-9.3-13.3
			c-4.5,0-7.9,3.3-9.3,7.1c-0.4,1.1-0.6,2.5-0.6,3.9v26.6h-7.7v-25.8c0-6.9-3-11.8-9-11.8c-4.9,0-8.5,3.9-9.7,7.8
			c-0.4,1.2-0.6,2.5-0.6,3.8v26h-7.7V803.7z"/>
		<path class="st0" d="M-1360.6,835.1l-0.6-5.4h-0.3c-2.4,3.4-7,6.4-13.2,6.4c-8.7,0-13.2-6.1-13.2-12.4c0-10.4,9.3-16.1,25.9-16
			v-0.9c0-3.6-1-10-9.8-10c-4,0-8.2,1.2-11.2,3.2l-1.8-5.2c3.6-2.3,8.7-3.8,14.2-3.8c13.2,0,16.4,9,16.4,17.6v16.1
			c0,3.7,0.2,7.4,0.7,10.3H-1360.6z M-1361.7,813.1c-8.5-0.2-18.2,1.3-18.2,9.7c0,5.1,3.4,7.5,7.4,7.5c5.6,0,9.2-3.6,10.4-7.2
			c0.3-0.8,0.4-1.7,0.4-2.5V813.1z"/>
		<path class="st2" d="M-1342.6,827.1c2.3,1.5,6.4,3.1,10.3,3.1c5.7,0,8.4-2.8,8.4-6.4c0-3.7-2.2-5.8-8-7.9
			c-7.7-2.8-11.4-7-11.4-12.2c0-6.9,5.6-12.6,14.9-12.6c4.4,0,8.2,1.2,10.6,2.7l-2,5.7c-1.7-1.1-4.8-2.5-8.8-2.5
			c-4.6,0-7.2,2.7-7.2,5.9c0,3.6,2.6,5.2,8.2,7.3c7.5,2.8,11.3,6.6,11.3,13c0,7.6-5.9,12.9-16.1,12.9c-4.7,0-9.1-1.2-12.1-2.9
			L-1342.6,827.1z"/>
		<path class="st2" d="M-1303.4,792l9.4,25.5c1,2.8,2,6.2,2.8,8.8h0.2c0.8-2.6,1.7-5.9,2.8-9l8.5-25.3h8.3l-11.7,30.7
			c-5.6,14.8-9.4,22.3-14.8,27c-3.8,3.4-7.7,4.7-9.6,5.1l-2-6.6c2-0.6,4.5-1.9,6.9-3.8c2.1-1.7,4.8-4.7,6.6-8.7
			c0.4-0.8,0.6-1.4,0.6-1.9s-0.2-1.1-0.5-2L-1312,792H-1303.4z"/>
		<path class="st2" d="M-1264.3,803.7c0-4.4-0.1-8.1-0.4-11.7h6.9l0.4,7.1h0.2c2.1-4.1,7.1-8.1,14.2-8.1c6,0,15.2,3.6,15.2,18.3
			v25.7h-7.8v-24.8c0-6.9-2.6-12.7-10-12.7c-5.2,0-9.2,3.6-10.5,8c-0.4,1-0.5,2.3-0.5,3.6v25.9h-7.8V803.7z"/>
		<path class="st2" d="M-1184.2,833.5c-2,1.1-6.6,2.5-12.4,2.5c-13,0-21.5-8.8-21.5-22c0-13.3,9.1-22.9,23.1-22.9
			c4.6,0,8.7,1.2,10.9,2.2l-1.8,6.1c-1.9-1.1-4.8-2-9.1-2c-9.9,0-15.2,7.3-15.2,16.3c0,10,6.4,16.1,15,16.1c4.5,0,7.4-1.2,9.6-2.1
			L-1184.2,833.5z"/>
	</g>
</g>
<g>
	<g>
		<path class="st2" d="M-671.6,333.8v-60.6h8.5l19.4,30.7c4.5,7.1,8,13.5,10.9,19.7l0.2-0.1c-0.7-8.1-0.9-15.5-0.9-24.9v-25.4h7.4
			v60.6h-7.9l-19.2-30.7c-4.2-6.7-8.3-13.7-11.3-20.2l-0.3,0.1c0.5,7.6,0.6,14.9,0.6,25v25.9H-671.6z"/>
		<path class="st2" d="M-576.3,322c0,4.5,0.1,8.5,0.4,11.9h-7l-0.4-7.1h-0.2c-2.1,3.5-6.7,8.1-14.4,8.1c-6.8,0-15-3.8-15-19.1v-25.4
			h7.9v24.1c0,8.3,2.5,13.8,9.7,13.8c5.3,0,9-3.7,10.4-7.2c0.4-1.2,0.7-2.6,0.7-4v-26.7h7.9V322z"/>
		<path class="st2" d="M-563.1,302.1c0-4.5-0.1-8.2-0.4-11.8h6.9l0.4,7h0.3c2.4-4.1,6.5-8,13.7-8c5.9,0,10.4,3.6,12.3,8.7h0.2
			c1.3-2.4,3.1-4.3,4.9-5.7c2.6-2,5.5-3.1,9.6-3.1c5.8,0,14.3,3.8,14.3,18.9v25.6h-7.7v-24.6c0-8.4-3.1-13.4-9.4-13.4
			c-4.5,0-8,3.3-9.4,7.2c-0.4,1.1-0.6,2.5-0.6,4v26.9h-7.7v-26.1c0-6.9-3.1-12-9.1-12c-4.9,0-8.5,4-9.8,7.9
			c-0.4,1.2-0.6,2.5-0.6,3.9v26.3h-7.7V302.1z"/>
		<path class="st2" d="M-464.1,333.8l-0.6-5.5h-0.3c-2.4,3.4-7.1,6.5-13.3,6.5c-8.8,0-13.3-6.2-13.3-12.5c0-10.5,9.4-16.3,26.2-16.2
			v-0.9c0-3.6-1-10.1-9.9-10.1c-4,0-8.3,1.3-11.3,3.2l-1.8-5.2c3.6-2.3,8.8-3.9,14.3-3.9c13.3,0,16.5,9.1,16.5,17.8v16.3
			c0,3.8,0.2,7.5,0.7,10.4H-464.1z M-465.2,311.6c-8.6-0.2-18.4,1.3-18.4,9.8c0,5.1,3.4,7.6,7.5,7.6c5.7,0,9.3-3.6,10.5-7.3
			c0.3-0.8,0.4-1.7,0.4-2.5V311.6z"/>
		<path class="st4" d="M-445.9,325.7c2.3,1.5,6.5,3.1,10.4,3.1c5.8,0,8.5-2.9,8.5-6.5c0-3.8-2.2-5.8-8.1-8
			c-7.8-2.8-11.5-7.1-11.5-12.3c0-7,5.7-12.8,15-12.8c4.4,0,8.3,1.3,10.7,2.7l-2,5.8c-1.7-1.1-4.9-2.5-8.9-2.5
			c-4.7,0-7.3,2.7-7.3,5.9c0,3.6,2.6,5.2,8.3,7.4c7.6,2.9,11.4,6.7,11.4,13.1c0,7.6-5.9,13-16.3,13c-4.8,0-9.2-1.2-12.2-3
			L-445.9,325.7z"/>
		<path class="st4" d="M-406.3,290.3l9.5,25.7c1,2.9,2.1,6.3,2.8,8.9h0.2c0.8-2.6,1.7-5.9,2.8-9.1l8.6-25.5h8.4l-11.9,31
			c-5.7,14.9-9.5,22.6-14.9,27.2c-3.9,3.4-7.7,4.8-9.7,5.1l-2-6.7c2-0.6,4.6-1.9,6.9-3.9c2.2-1.7,4.9-4.8,6.7-8.8
			c0.4-0.8,0.6-1.4,0.6-1.9s-0.2-1.1-0.5-2.1l-16.1-40.1H-406.3z"/>
		<path class="st4" d="M-366.9,302.1c0-4.5-0.1-8.2-0.4-11.8h7l0.5,7.2h0.2c2.2-4.1,7.2-8.2,14.4-8.2c6,0,15.4,3.6,15.4,18.5v26
			h-7.9v-25.1c0-7-2.6-12.9-10.1-12.9c-5.2,0-9.3,3.7-10.6,8.1c-0.4,1-0.5,2.3-0.5,3.7v26.2h-7.9V302.1z"/>
		<path class="st4" d="M-286,332.2c-2.1,1.1-6.7,2.5-12.5,2.5c-13.1,0-21.7-8.9-21.7-22.2c0-13.4,9.2-23.1,23.4-23.1
			c4.7,0,8.8,1.2,11,2.2l-1.8,6.1c-1.9-1.1-4.9-2.1-9.2-2.1c-10,0-15.4,7.4-15.4,16.5c0,10.1,6.5,16.3,15.1,16.3
			c4.5,0,7.5-1.2,9.7-2.2L-286,332.2z"/>
	</g>
</g>
<g>
	<path class="st2" d="M-423.3,104.4c-2.5,1.1-3.7,4-2.6,6.5c1.1,2.5,4,3.7,6.5,2.6l20.2-8.8l-37.7,108.9
		c-3.7,10.7-10.6,19.5-19.5,24.7c-8.6,5.1-18,6.3-26.5,3.4c-8.5-2.9-15.2-9.7-18.8-19.1c-3.7-9.7-3.7-20.8,0-31.5l41.4-119.5
		l7.8-21.8c5.9,3.6,10.5,9.3,13.3,16.5c3.7,9.7,3.7,20.8,0,31.5l-41.4,119.6c-0.9,2.6,0.5,5.4,3.1,6.3c0.5,0.2,1.1,0.3,1.6,0.3
		c2.1,0,4-1.3,4.7-3.4l41.4-119.6c4.5-12.9,4.4-26.5-0.1-38.3c-4.7-12.1-13.5-21-24.8-24.9c-23.1-8-49.4,7.4-58.7,34.3l-44.6,128.7
		l47.2-14.1l-0.4,1.1c-4.5,12.9-4.4,26.5,0.1,38.3c4.7,12.1,13.5,21,24.8,24.9c4.1,1.4,8.4,2.1,12.7,2.1c7.5,0,15.1-2.1,22.2-6.4
		c10.9-6.5,19.4-17.2,23.8-30l45.1-130.3L-423.3,104.4z M-542.2,185.8l38.2-110.4c7-20.2,25.3-32.5,42.2-29.2l-7.9,22.1l-37,106.9
		L-542.2,185.8z"/>
	
		<linearGradient id="SVGID_00000119110197509381532310000010544011848388697501_" gradientUnits="userSpaceOnUse" x1="-542.1606" y1="115.7417" x2="-461.7133" y2="115.7417">
		<stop  offset="0" style="stop-color:#304881"/>
		<stop  offset="1" style="stop-color:#00959D"/>
	</linearGradient>
	<path style="fill:url(#SVGID_00000119110197509381532310000010544011848388697501_);" d="M-461.7,46.2l-7.9,22.1l-37,106.9
		l-35.5,10.6l38.2-110.4C-497,55.2-478.6,42.9-461.7,46.2z"/>
</g>
<rect x="963.8" y="126" class="st0" width="705" height="355"/>
<g>
	<g>
		<g>
			<path class="st2" d="M284.5,199.8v-55.5h7.8l17.8,28.1c4.1,6.5,7.3,12.4,10,18l0.2-0.1c-0.7-7.4-0.8-14.2-0.8-22.8v-23.2h6.8
				v55.5h-7.2l-17.6-28.2c-3.9-6.2-7.6-12.5-10.4-18.5l-0.2,0.1c0.4,7,0.6,13.7,0.6,22.9v23.7H284.5z"/>
			<path class="st2" d="M371.8,188.9c0,4.1,0.1,7.7,0.3,10.9h-6.4l-0.4-6.5h-0.2c-1.9,3.2-6.1,7.4-13.2,7.4
				c-6.3,0-13.8-3.5-13.8-17.5v-23.3h7.2V182c0,7.6,2.3,12.7,8.9,12.7c4.9,0,8.2-3.4,9.6-6.6c0.4-1.1,0.7-2.4,0.7-3.7v-24.5h7.2
				V188.9z"/>
			<path class="st2" d="M383.8,170.7c0-4.1-0.1-7.5-0.3-10.8h6.3l0.3,6.4h0.2c2.2-3.8,5.9-7.3,12.5-7.3c5.4,0,9.6,3.3,11.3,8h0.2
				c1.2-2.2,2.8-4,4.4-5.2c2.4-1.8,5-2.8,8.8-2.8c5.3,0,13.1,3.5,13.1,17.3v23.5h-7.1v-22.6c0-7.7-2.8-12.3-8.6-12.3
				c-4.1,0-7.3,3-8.6,6.6c-0.3,1-0.6,2.3-0.6,3.6v24.6h-7.1v-23.9c0-6.3-2.8-11-8.3-11c-4.5,0-7.8,3.6-9,7.2
				c-0.4,1.1-0.6,2.3-0.6,3.5v24h-7.1V170.7z"/>
			<path class="st2" d="M474.5,199.8l-0.6-5h-0.2c-2.2,3.1-6.5,5.9-12.2,5.9c-8.1,0-12.2-5.7-12.2-11.4c0-9.6,8.6-14.9,24-14.8v-0.8
				c0-3.3-0.9-9.2-9.1-9.2c-3.7,0-7.6,1.2-10.4,3l-1.6-4.8c3.3-2.1,8.1-3.5,13.1-3.5c12.2,0,15.1,8.3,15.1,16.3v14.9
				c0,3.5,0.2,6.8,0.7,9.6H474.5z M473.5,179.4c-7.9-0.2-16.9,1.2-16.9,9c0,4.7,3.1,6.9,6.8,6.9c5.2,0,8.5-3.3,9.6-6.7
				c0.2-0.7,0.4-1.6,0.4-2.3V179.4z"/>
			<path class="st4" d="M491.2,192.4c2.1,1.4,5.9,2.9,9.6,2.9c5.3,0,7.7-2.6,7.7-5.9c0-3.5-2.1-5.4-7.4-7.3
				c-7.2-2.6-10.5-6.5-10.5-11.3c0-6.4,5.2-11.7,13.8-11.7c4,0,7.6,1.2,9.8,2.5l-1.8,5.3c-1.6-1-4.4-2.3-8.2-2.3
				c-4.3,0-6.7,2.5-6.7,5.4c0,3.3,2.4,4.8,7.6,6.8c6.9,2.6,10.5,6.1,10.5,12c0,7-5.4,11.9-14.9,11.9c-4.4,0-8.4-1.1-11.2-2.7
				L491.2,192.4z"/>
			<path class="st4" d="M527.4,159.9l8.7,23.5c0.9,2.6,1.9,5.8,2.6,8.2h0.2c0.7-2.4,1.6-5.4,2.6-8.3l7.9-23.4h7.7l-10.9,28.4
				c-5.2,13.7-8.7,20.7-13.7,24.9c-3.5,3.1-7.1,4.4-8.9,4.7l-1.8-6.1c1.8-0.6,4.2-1.7,6.3-3.5c2-1.6,4.4-4.4,6.1-8.1
				c0.3-0.7,0.6-1.3,0.6-1.7c0-0.4-0.2-1-0.5-1.9l-14.7-36.7H527.4z"/>
			<path class="st4" d="M563.5,170.7c0-4.1-0.1-7.5-0.3-10.8h6.4l0.4,6.6h0.2c2-3.8,6.6-7.5,13.2-7.5c5.5,0,14.1,3.3,14.1,17v23.8
				h-7.2v-23c0-6.4-2.4-11.8-9.2-11.8c-4.8,0-8.5,3.4-9.7,7.4c-0.3,0.9-0.5,2.1-0.5,3.4v24h-7.2V170.7z"/>
			<path class="st4" d="M637.6,198.3c-1.9,1-6.1,2.3-11.4,2.3c-12,0-19.8-8.2-19.8-20.3c0-12.3,8.4-21.2,21.4-21.2
				c4.3,0,8.1,1.1,10,2.1l-1.6,5.6c-1.7-1-4.4-1.9-8.4-1.9c-9.1,0-14.1,6.8-14.1,15.1c0,9.2,5.9,14.9,13.8,14.9c4.1,0,6.8-1.1,8.9-2
				L637.6,198.3z"/>
		</g>
	</g>
	<g>
		<path class="st2" d="M192.7,129.6c-2.8,1.2-4.2,4.6-2.9,7.4c1.2,2.9,4.6,4.2,7.4,2.9l22.9-10l-42.7,123.3c-4.2,12.1-12,22-22.1,28
			c-9.8,5.8-20.4,7.2-30.1,3.8c-9.6-3.3-17.2-11-21.3-21.6c-4.2-10.9-4.2-23.6,0-35.7l46.9-135.4l8.9-24.7
			c6.7,4.1,11.9,10.5,15.1,18.7c4.2,10.9,4.2,23.6,0,35.7l-46.9,135.5c-1,2.9,0.5,6.1,3.5,7.2c0.6,0.2,1.2,0.3,1.8,0.3
			c2.3,0,4.5-1.5,5.3-3.8l46.9-135.5c5.1-14.6,5-30-0.2-43.4C180,68.7,170,58.6,157.2,54.2c-26.1-9-55.9,8.4-66.5,38.8L40.2,238.9
			l53.5-15.9l-0.4,1.2c-5.1,14.6-5,30,0.2,43.4c5.3,13.7,15.3,23.8,28.1,28.2c4.7,1.6,9.5,2.4,14.4,2.4c8.5,0,17.1-2.4,25.1-7.2
			c12.3-7.4,21.9-19.4,27-34l51.1-147.6L192.7,129.6z M58,221.8l43.3-125.1c7.9-22.9,28.7-36.8,47.8-33l-9,25L98.3,209.8L58,221.8z"
			/>
		
			<linearGradient id="SVGID_00000005969791024194903500000005518199767287053241_" gradientUnits="userSpaceOnUse" x1="58.0367" y1="142.439" x2="149.1776" y2="142.439">
			<stop  offset="0" style="stop-color:#304881"/>
			<stop  offset="1" style="stop-color:#00959D"/>
		</linearGradient>
		<path style="fill:url(#SVGID_00000005969791024194903500000005518199767287053241_);" d="M149.2,63.7l-9,25L98.3,209.8l-40.2,12
			l43.3-125.1C109.2,73.9,130,59.9,149.2,63.7z"/>
	</g>
</g>
<g>
	<path class="st2" d="M-1049.5,380.2c-2.5,1.1-3.7,4-2.6,6.5c1.1,2.5,4,3.7,6.5,2.6l20.2-8.8l-37.7,108.9
		c-3.7,10.7-10.6,19.5-19.5,24.7c-8.6,5.1-18,6.3-26.5,3.4c-8.5-2.9-15.2-9.7-18.8-19.1c-3.7-9.7-3.7-20.8,0-31.5l41.4-119.5
		l7.8-21.8c5.9,3.6,10.5,9.3,13.3,16.5c3.7,9.7,3.7,20.8,0,31.5l-41.4,119.6c-0.9,2.6,0.5,5.4,3.1,6.3c0.5,0.2,1.1,0.3,1.6,0.3
		c2.1,0,4-1.3,4.7-3.4l41.4-119.6c4.5-12.9,4.4-26.5-0.1-38.3c-4.7-12.1-13.5-21-24.8-24.9c-23.1-8-49.4,7.4-58.7,34.3l-44.6,128.7
		l47.2-14.1l-0.4,1.1c-4.5,12.9-4.4,26.5,0.1,38.3c4.7,12.1,13.5,21,24.8,24.9c4.1,1.4,8.4,2.1,12.7,2.1c7.5,0,15.1-2.1,22.2-6.4
		c10.9-6.5,19.4-17.2,23.8-30l45.1-130.3L-1049.5,380.2z M-1168.3,461.6l38.2-110.4c7-20.2,25.3-32.5,42.2-29.2l-7.9,22.1l-37,106.9
		L-1168.3,461.6z"/>
	
		<linearGradient id="SVGID_00000057844357569798722090000014722108855990108076_" gradientUnits="userSpaceOnUse" x1="-1168.3417" y1="391.5753" x2="-1087.8943" y2="391.5753">
		<stop  offset="0" style="stop-color:#304881"/>
		<stop  offset="1" style="stop-color:#00959D"/>
	</linearGradient>
	<path style="fill:url(#SVGID_00000057844357569798722090000014722108855990108076_);" d="M-1087.9,322.1l-7.9,22.1l-37,106.9
		l-35.5,10.6l38.2-110.4C-1123.1,331-1104.8,318.7-1087.9,322.1z"/>
</g>
</svg>
