<svg width="131" height="66" viewBox="0 0 131 66" fill="none" xmlns="http://www.w3.org/2000/svg">
<mask id="mask0_1009_75915" style="mask-type:alpha" maskUnits="userSpaceOnUse" x="1" y="1" width="129" height="64">
<rect width="128" height="64" transform="translate(1.33325 1)" fill="url(#paint0_linear_1009_75915)"/>
</mask>
<g mask="url(#mask0_1009_75915)">
<path opacity="0.2" d="M5.93931 57.2759L1.33325 65H129.333V1L127.515 12.0345H125.091C124.444 13.8736 123.103 17.5517 122.909 17.5517C122.715 17.5517 121.454 19.7586 120.848 20.8621L115.636 24.1724L112.606 28.5862L107.757 24.1724L105.212 20.8621L101.576 28.5862H97.8181L94.6666 20.8621C93.4545 19.7586 90.9817 17.5517 90.7878 17.5517C90.5939 17.5517 89.01 15.3448 88.2423 14.2414H86.3029L81.6969 17.5517L77.6969 20.8621L75.8787 28.5862L70.4242 31.8966L67.6363 35.2069L64.4848 40.7241L61.4545 47.9655H60.1211L56.4848 48.6552L52.9696 40.7241L49.9393 35.2069H48.1211L44.9696 31.8966L40.4848 35.2069H36.2423L31.9999 40.7241L27.7575 47.3448L24.606 53.9655L21.212 57.2759L16.606 53.9655L12.9696 57.2759L9.33325 60.5862L5.93931 57.2759Z" fill="#17B26A"/>
</g>
<path d="M1.33325 65L5.93931 57.2759L9.33325 60.5862L12.9696 57.2759L16.606 53.9655L21.212 57.2759L24.606 53.9655L27.7575 47.3448L31.9999 40.7241L36.2423 35.2069H40.4848L44.9696 31.8966L48.1211 35.2069H49.9393L52.9696 40.7241L56.4848 48.6552L60.1211 47.9655H61.4545L64.4848 40.7241L67.6363 35.2069L70.4242 31.8966L75.8787 28.5862L77.6969 20.8621L81.6969 17.5517L86.3029 14.2414H88.2423C89.01 15.3448 90.5939 17.5517 90.7878 17.5517C90.9817 17.5517 93.4545 19.7586 94.6666 20.8621L97.8181 28.5862H101.576L105.212 20.8621L107.757 24.1724L112.606 28.5862L115.636 24.1724L120.848 20.8621C121.454 19.7586 122.715 17.5517 122.909 17.5517C123.103 17.5517 124.444 13.8736 125.091 12.0345H127.515L129.333 1" stroke="#17B26A" stroke-width="2" stroke-linecap="round" stroke-linejoin="round"/>
<g opacity="0.2">
<rect x="76.3333" y="5" width="20" height="20" rx="10" stroke="#17B26A" stroke-width="2"/>
</g>
<rect x="81.3333" y="10" width="10" height="10" rx="5" fill="white"/>
<rect x="81.3333" y="10" width="10" height="10" rx="5" stroke="#17B26A" stroke-width="2"/>
<defs>
<linearGradient id="paint0_linear_1009_75915" x1="64" y1="0" x2="64" y2="64" gradientUnits="userSpaceOnUse">
<stop/>
<stop offset="1" stop-opacity="0"/>
</linearGradient>
</defs>
</svg>
