<svg width="16" height="16" viewBox="0 0 16 16" fill="none" xmlns="http://www.w3.org/2000/svg">
<path d="M11.3332 4.66668C11.3332 5.32595 11.1377 5.97041 10.7714 6.51858C10.4051 7.06674 9.88454 7.49398 9.27545 7.74628C8.66636 7.99857 7.99614 8.06458 7.34954 7.93596C6.70293 7.80734 6.10899 7.48987 5.64282 7.0237C5.17664 6.55752 4.85917 5.96358 4.73055 5.31698C4.60194 4.67037 4.66795 4.00015 4.92024 3.39107C5.17253 2.78198 5.59977 2.26138 6.14794 1.89511C6.6961 1.52884 7.34057 1.33334 7.99984 1.33334C8.88389 1.33334 9.73174 1.68453 10.3569 2.30965C10.982 2.93478 11.3332 3.78262 11.3332 4.66668Z" stroke="#11181C" stroke-width="1.2" stroke-linecap="round" stroke-linejoin="round"/>
<path d="M2.27344 14.6667C2.27344 12.0867 4.8401 10 8.0001 10C8.62173 9.9993 9.24062 10.0823 9.8401 10.2467" stroke="#11181C" stroke-width="1.2" stroke-linecap="round" stroke-linejoin="round"/>
<path d="M12.0542 12.8922C12.5234 12.8922 12.9037 12.5127 12.9037 12.0446C12.9037 11.5765 12.5234 11.1971 12.0542 11.1971C11.585 11.1971 11.2046 11.5765 11.2046 12.0446C11.2046 12.5127 11.585 12.8922 12.0542 12.8922Z" stroke="#11181C" stroke-width="0.8" stroke-miterlimit="10" stroke-linecap="round" stroke-linejoin="round"/>
<path d="M9.22217 12.293V11.7958C9.22217 11.5019 9.46288 11.259 9.76023 11.259C10.2728 11.259 10.4824 10.8974 10.2247 10.4538C10.0774 10.1995 10.1652 9.86899 10.4229 9.72208L10.9128 9.44238C11.1365 9.3096 11.4254 9.38871 11.5585 9.6119L11.5897 9.66557C11.8445 10.1091 12.2636 10.1091 12.5214 9.66557L12.5525 9.6119C12.6856 9.38871 12.9745 9.3096 13.1982 9.44238L13.6881 9.72208C13.9458 9.86899 14.0336 10.1995 13.8863 10.4538C13.6286 10.8974 13.8382 11.259 14.3508 11.259C14.6453 11.259 14.8888 11.4991 14.8888 11.7958V12.293C14.8888 12.5868 14.6481 12.8298 14.3508 12.8298C13.8382 12.8298 13.6286 13.1914 13.8863 13.635C14.0336 13.8921 13.9458 14.2198 13.6881 14.3667L13.1982 14.6464C12.9745 14.7792 12.6856 14.7001 12.5525 14.4769L12.5214 14.4232C12.2665 13.9796 11.8474 13.9796 11.5897 14.4232L11.5585 14.4769C11.4254 14.7001 11.1365 14.7792 10.9128 14.6464L10.4229 14.3667C10.1652 14.2198 10.0774 13.8892 10.2247 13.635C10.4824 13.1914 10.2728 12.8298 9.76023 12.8298C9.46288 12.8298 9.22217 12.5868 9.22217 12.293Z" stroke="#11181C" stroke-width="0.8" stroke-miterlimit="10" stroke-linecap="round" stroke-linejoin="round"/>
</svg>
